<svg width="16" height="16" viewBox="0 0 16 16" fill="none" xmlns="http://www.w3.org/2000/svg">
<path d="M5.82623 2.71048C5.54361 2.71048 5.22898 2.89392 4.99076 3.37029L4.77804 3.79592C4.85554 3.78957 4.93329 3.78623 5.01101 3.78623C5.57414 3.78623 6.13617 3.95382 6.63195 4.28551V3.31726C6.39758 2.88236 6.09751 2.71045 5.82626 2.71045L5.82623 2.71048ZM10.174 2.71048C9.90273 2.71048 9.60273 2.88236 9.36836 3.31729V4.28586C9.93286 3.90898 10.5838 3.74586 11.2229 3.79717L11.0095 3.37029C10.7712 2.89389 10.4566 2.71048 10.174 2.71048H10.174ZM5.01098 4.33317C4.41567 4.33317 3.82098 4.57357 3.33161 5.05192L2.16348 7.09623C2.61636 6.88551 3.12076 6.76754 3.65223 6.76754C4.90098 6.76754 6.00098 7.41729 6.63192 8.39642V4.99511C6.15401 4.55401 5.58255 4.33317 5.01098 4.33317ZM11.0245 4.3342C10.4413 4.32464 9.85608 4.54482 9.36836 4.99498V8.39639C9.9993 7.41732 11.0993 6.76754 12.348 6.76754C12.8795 6.76754 13.3839 6.88551 13.8368 7.09623L12.6687 5.05192C12.189 4.58307 11.6078 4.34379 11.0246 4.3342H11.0245ZM8.00011 4.74857C7.84033 4.74857 7.62879 4.83529 7.19439 5.04942V9.20611C7.42083 9.04004 7.69951 8.94151 8.00011 8.94151C8.3007 8.94151 8.57939 9.04007 8.80583 9.20614V5.04942C8.37145 4.83529 8.15989 4.74857 8.00011 4.74857ZM3.6523 7.33004C2.00333 7.33004 0.672607 8.66073 0.672607 10.3097C0.672607 11.9586 2.00333 13.2894 3.6523 13.2894C5.3012 13.2894 6.63189 11.9586 6.63189 10.3097C6.63189 8.66073 5.3012 7.33004 3.65226 7.33004H3.6523ZM12.3479 7.33004C10.699 7.33004 9.36833 8.66073 9.36833 10.3097C9.36833 11.9586 10.699 13.2894 12.348 13.2894C13.9969 13.2894 15.3276 11.9586 15.3276 10.3097C15.3276 8.66073 13.9969 7.33004 12.348 7.33004H12.3479ZM3.60333 7.92392C3.6416 7.92335 3.67988 7.92366 3.71814 7.92486C3.94764 7.93189 4.17733 7.97054 4.39845 8.04411C5.54976 8.39857 6.26548 9.65861 5.98039 10.8288C5.74126 12.0083 4.55992 12.8447 3.36804 12.6779C2.15717 12.5571 1.20004 11.441 1.26929 10.2253C1.27451 9.8687 1.3672 9.52726 1.52554 9.22139C1.5815 9.38047 1.68541 9.51829 1.82295 9.61585C1.9605 9.71342 2.12491 9.76594 2.29354 9.76617C2.4006 9.76618 2.50661 9.74511 2.60552 9.70415C2.70443 9.66319 2.79431 9.60315 2.87002 9.52746C2.94573 9.45177 3.00579 9.36191 3.04677 9.26301C3.08775 9.1641 3.10885 9.0581 3.10886 8.95104C3.10865 8.78231 3.05609 8.6178 2.95844 8.4802C2.86078 8.3426 2.72284 8.23869 2.56364 8.18279C2.8467 8.03611 3.16042 7.94548 3.48883 7.9282C3.52695 7.92594 3.56511 7.92451 3.60329 7.92392H3.60333ZM12.299 7.92392C12.3372 7.92335 12.3755 7.92366 12.4137 7.92486C12.6432 7.93189 12.873 7.97054 13.0942 8.04411C14.2454 8.39857 14.9611 9.65861 14.676 10.8288C14.4369 12.0082 13.2556 12.8447 12.0639 12.6779C10.8529 12.5572 9.89573 11.441 9.96501 10.2252C9.97023 9.86864 10.0629 9.52726 10.2213 9.22139C10.2772 9.38046 10.3811 9.51828 10.5187 9.61584C10.6562 9.71341 10.8206 9.76593 10.9892 9.76617C11.2054 9.76616 11.4128 9.68028 11.5656 9.52742C11.7185 9.37456 11.8044 9.16723 11.8044 8.95104C11.8042 8.78233 11.7517 8.61783 11.654 8.48023C11.5564 8.34263 11.4185 8.23871 11.2593 8.18279C11.5424 8.03611 11.856 7.94548 12.1844 7.9282C12.2225 7.92595 12.2607 7.92452 12.299 7.92392ZM8.00011 9.50398C7.55179 9.50398 7.19439 9.86136 7.19439 10.3097C7.19439 10.758 7.55179 11.1154 8.00011 11.1154C8.44842 11.1154 8.80583 10.758 8.80583 10.3097C8.80583 9.86136 8.44842 9.50404 8.00011 9.50404V9.50398Z" fill="black"/>
</svg>
