<svg width="24" height="24" viewBox="0 0 24 24" fill="none" xmlns="http://www.w3.org/2000/svg">
<path d="M7.5 9C7.5 8.33696 7.76339 7.70107 8.23223 7.23223C8.70107 6.76339 9.33696 6.5 10 6.5C10.663 6.5 11.2989 6.76339 11.7678 7.23223C12.2366 7.70107 12.5 8.33696 12.5 9C12.5 9.66304 12.2366 10.2989 11.7678 10.7678C11.2989 11.2366 10.663 11.5 10 11.5C9.33696 11.5 8.70107 11.2366 8.23223 10.7678C7.76339 10.2989 7.5 9.66304 7.5 9ZM10 7.5C9.60218 7.5 9.22064 7.65804 8.93934 7.93934C8.65804 8.22064 8.5 8.60218 8.5 9C8.5 9.39782 8.65804 9.77936 8.93934 10.0607C9.22064 10.342 9.60218 10.5 10 10.5C10.3978 10.5 10.7794 10.342 11.0607 10.0607C11.342 9.77936 11.5 9.39782 11.5 9C11.5 8.60218 11.342 8.22064 11.0607 7.93934C10.7794 7.65804 10.3978 7.5 10 7.5Z" fill="black"/>
<path d="M13.623 3.5H10.377C9.277 3.5 8.419 3.5 7.732 3.556C7.034 3.613 6.467 3.731 5.957 3.99C5.11005 4.42147 4.42147 5.11005 3.99 5.957C3.73 6.467 3.613 7.034 3.556 7.732C3.5 8.42 3.5 9.276 3.5 10.377V13.623C3.5 14.569 3.5 15.335 3.536 15.968C3.53867 16.0327 3.54267 16.0993 3.548 16.168L3.551 16.199C3.586 16.665 3.646 17.073 3.755 17.445C3.81567 17.6543 3.894 17.8537 3.99 18.043C4.42147 18.89 5.11005 19.5785 5.957 20.01C6.467 20.27 7.034 20.387 7.732 20.444C8.419 20.5 9.276 20.5 10.377 20.5H13.623C14.723 20.5 15.581 20.5 16.268 20.444C16.966 20.387 17.533 20.269 18.043 20.01C18.89 19.5785 19.5785 18.89 20.01 18.043C20.506 17.068 20.503 15.89 20.5 14.802L20.499 14.46L20.5 13.623V10.377C20.5 9.277 20.5 8.419 20.444 7.732C20.387 7.034 20.269 6.467 20.01 5.957C19.5785 5.11005 18.89 4.42147 18.043 3.99C17.533 3.73 16.966 3.613 16.268 3.556C15.581 3.5 14.724 3.5 13.623 3.5ZM4.553 16.186L4.547 16.116C4.506 15.488 5.15 14.866 5.626 14.407C5.70267 14.3337 5.77333 14.2647 5.838 14.2C6.09 13.946 6.261 13.831 6.414 13.776C6.74657 13.6544 7.11143 13.6544 7.444 13.776C7.596 13.831 7.767 13.946 8.019 14.2C8.274 14.457 8.575 14.817 9.003 15.33C9.12253 15.4738 9.27102 15.5907 9.4388 15.6732C9.60657 15.7557 9.78986 15.8019 9.97669 15.8088C10.1635 15.8157 10.3497 15.7831 10.5231 15.7132C10.6965 15.6433 10.8532 15.5376 10.983 15.403L13.986 12.292C14.073 12.202 14.164 12.1 14.258 11.995C14.603 11.609 14.996 11.169 15.455 11.016C15.7624 10.9137 16.0946 10.9137 16.402 11.016C17.175 11.274 17.901 12.145 18.532 12.902C18.766 13.182 18.986 13.447 19.192 13.659C19.443 13.92 19.5 14.07 19.499 14.422C19.496 15.292 19.479 15.929 19.424 16.427C19.367 16.932 19.271 17.289 19.119 17.589C18.7834 18.2478 18.2478 18.7834 17.589 19.119C17.243 19.295 16.823 19.395 16.187 19.447C15.545 19.5 14.728 19.5 13.6 19.5H10.4C9.272 19.5 8.455 19.5 7.814 19.447C7.177 19.395 6.757 19.295 6.411 19.119C5.70799 18.76 5.14696 18.174 4.819 17.456C4.681 17.135 4.599 16.743 4.553 16.186ZM19.5 12.54L18.575 11.582C18.2621 11.247 17.9365 10.9241 17.599 10.614C17.316 10.366 17.041 10.175 16.718 10.068C16.2055 9.89742 15.6515 9.89742 15.139 10.068C14.816 10.175 14.541 10.366 14.259 10.614C13.984 10.854 13.671 11.179 13.282 11.582L10.263 14.708C10.2308 14.7415 10.1919 14.7679 10.1488 14.7853C10.1057 14.8027 10.0594 14.8108 10.013 14.8091C9.96652 14.8074 9.92096 14.796 9.87926 14.7754C9.83756 14.7549 9.80067 14.7258 9.771 14.69L9.756 14.672C9.346 14.181 9.018 13.787 8.729 13.495C8.433 13.197 8.139 12.965 7.787 12.836C7.23261 12.6333 6.62439 12.6333 6.07 12.836C5.718 12.966 5.425 13.196 5.128 13.496C4.9096 13.721 4.70011 13.9546 4.5 14.196V10.4C4.5 9.272 4.5 8.455 4.553 7.814C4.605 7.177 4.705 6.757 4.881 6.411C5.2166 5.7522 5.7522 5.2166 6.411 4.881C6.757 4.705 7.177 4.605 7.814 4.553C8.455 4.5 9.272 4.5 10.4 4.5H13.6C14.728 4.5 15.545 4.5 16.186 4.553C16.823 4.605 17.243 4.705 17.589 4.881C18.2478 5.2166 18.7834 5.7522 19.119 6.411C19.295 6.757 19.395 7.177 19.447 7.814C19.5 8.455 19.5 9.272 19.5 10.4V12.54Z" fill="black"/>
</svg>
