<svg width="24" height="24" viewBox="0 0 24 24" fill="none" xmlns="http://www.w3.org/2000/svg">
<path d="M12.27 20C12.1273 20 12.008 19.9523 11.912 19.857C11.816 19.7617 11.7683 19.6427 11.769 19.5C11.7697 19.3573 11.8173 19.2383 11.912 19.143C12.0067 19.0477 12.1257 19 12.269 19H18.385C18.5517 19 18.6957 18.9487 18.817 18.846C18.939 18.7433 19 18.6087 19 18.442V11.554C19 9.68067 18.3113 8.11634 16.934 6.861C15.556 5.605 13.9113 4.977 12 4.977C10.0887 4.977 8.444 5.605 7.066 6.861C5.68867 8.11634 5 9.68067 5 11.554V16.731C5 16.873 4.95233 16.9917 4.857 17.087C4.76167 17.1823 4.64267 17.2303 4.5 17.231C4.09133 17.231 3.739 17.0927 3.443 16.816C3.14767 16.54 3 16.198 3 15.79V13.905C3 13.6063 3.097 13.3413 3.291 13.11C3.48567 12.878 3.722 12.6897 4 12.545L4.017 11.316C4.04767 10.2727 4.284 9.306 4.726 8.416C5.168 7.526 5.74933 6.75134 6.47 6.092C7.19067 5.43267 8.02867 4.91934 8.984 4.552C9.93933 4.18467 10.9447 4.00067 12 4C13.0553 3.99934 14.06 4.18334 15.014 4.552C15.966 4.92 16.8037 5.43267 17.527 6.09C18.2503 6.74667 18.8317 7.52 19.271 8.41C19.711 9.29934 19.9483 10.266 19.983 11.31L20 12.513C20.2653 12.6377 20.4983 12.8053 20.699 13.016C20.8997 13.226 21 13.4783 21 13.773V15.939C21 16.2337 20.8997 16.486 20.699 16.696C20.4983 16.906 20.2653 17.0733 20 17.198V18.442C20 18.8767 19.8427 19.245 19.528 19.547C19.2133 19.849 18.8323 20 18.385 20H12.27ZM9.385 13.538C9.17833 13.538 8.99833 13.468 8.845 13.328C8.69167 13.188 8.615 13.0147 8.615 12.808C8.615 12.6013 8.69167 12.4247 8.845 12.278C8.99833 12.1313 9.17833 12.058 9.385 12.058C9.59167 12.058 9.77133 12.1313 9.924 12.278C10.0767 12.4247 10.1533 12.6013 10.154 12.808C10.1547 13.0147 10.078 13.188 9.924 13.328C9.77 13.468 9.59 13.538 9.384 13.538M14.616 13.538C14.4093 13.538 14.2293 13.468 14.076 13.328C13.9227 13.188 13.846 13.0147 13.846 12.808C13.846 12.6013 13.9227 12.4247 14.076 12.278C14.2293 12.1313 14.4093 12.058 14.616 12.058C14.8227 12.058 15.0023 12.1313 15.155 12.278C15.3077 12.4247 15.3843 12.6013 15.385 12.808C15.3857 13.0147 15.309 13.188 15.155 13.328C15.001 13.468 14.821 13.538 14.615 13.538M6.718 11.95C6.62733 10.4527 7.10967 9.17634 8.165 8.121C9.21967 7.06567 10.515 6.538 12.051 6.538C13.3417 6.538 14.4857 6.92567 15.483 7.701C16.4803 8.47634 17.089 9.49467 17.309 10.756C15.9843 10.7393 14.755 10.4013 13.621 9.742C12.487 9.08267 11.617 8.166 11.011 6.992C10.7697 8.146 10.268 9.15734 9.506 10.026C8.74333 10.8947 7.814 11.536 6.718 11.95Z" fill="black"/>
</svg>
